HIERARCHY
ROOT Hips
{
	OFFSET 0.000000 0.794594 0.001814
	CHANNELS 6 Xposition Yposition Zposition Zrotation Xrotation Yrotation
	JOINT Spine
	{
		OFFSET -0.000000 0.051920 0.010783
		CHANNELS 3 Zrotation Xrotation Yrotation
		JOINT Chest
		{
			OFFSET 0.000000 0.111800 0.002643
			CHANNELS 3 Zrotation Xrotation Yrotation
			JOINT UpperChest
			{
				OFFSET 0.000011 0.124994 0.000757
				CHANNELS 3 Zrotation Xrotation Yrotation
				JOINT Neck
				{
					OFFSET 0.000112 0.117645 -0.020286
					CHANNELS 3 Zrotation Xrotation Yrotation
					JOINT Head
					{
						OFFSET 0.000009 0.074358 -0.000161
						CHANNELS 3 Zrotation Xrotation Yrotation
						JOINT LeftEye
						{
							OFFSET 0.019846 0.051735 0.040589
							CHANNELS 3 Zrotation Xrotation Yrotation
							End Site
							{
								OFFSET -0.000199 0.054090 0.042333
							}
						}
						JOINT RightEye
						{
							OFFSET -0.020226 0.051740 0.040395
							CHANNELS 3 Zrotation Xrotation Yrotation
							End Site
							{
								OFFSET -0.000199 0.054090 0.042333
							}
						}
					}
				}
				JOINT LeftShoulder
				{
					OFFSET 0.022481 0.089795 -0.017340
					CHANNELS 3 Zrotation Xrotation Yrotation
					JOINT LeftUpperArm
					{
						OFFSET 0.087730 -0.000010 0.000425
						CHANNELS 3 Zrotation Xrotation Yrotation
						JOINT LeftLowerArm
						{
							OFFSET 0.210364 0.001461 0.000713
							CHANNELS 3 Zrotation Xrotation Yrotation
							JOINT LeftHand
							{
								OFFSET 0.205444 0.001377 0.000711
								CHANNELS 3 Zrotation Xrotation Yrotation
								JOINT LeftIndexProximal
								{
									OFFSET 0.064499 0.001525 0.020305
									CHANNELS 3 Zrotation Xrotation Yrotation
									JOINT LeftIndexIntermediate
									{
										OFFSET 0.033222 0.000012 0.000212
										CHANNELS 3 Zrotation Xrotation Yrotation
										JOINT LeftIndexDistal
										{
											OFFSET 0.020455 0.000007 0.000130
											CHANNELS 3 Zrotation Xrotation Yrotation
											End Site
											{
												OFFSET 0.020455 0.000007 0.000130
											}
										}
									}
								}
								JOINT LeftLittleProximal
								{
									OFFSET 0.062854 -0.001936 -0.027845
									CHANNELS 3 Zrotation Xrotation Yrotation
									JOINT LeftLittleIntermediate
									{
										OFFSET 0.031399 0.000011 0.000200
										CHANNELS 3 Zrotation Xrotation Yrotation
										JOINT LeftLittleDistal
										{
											OFFSET 0.018096 0.000006 0.000115
											CHANNELS 3 Zrotation Xrotation Yrotation
											End Site
											{
												OFFSET 0.018096 0.000006 0.000115
											}
										}
									}
								}
								JOINT LeftMiddleProximal
								{
									OFFSET 0.066609 0.003801 0.003549
									CHANNELS 3 Zrotation Xrotation Yrotation
									JOINT LeftMiddleIntermediate
									{
										OFFSET 0.037005 0.000013 0.000236
										CHANNELS 3 Zrotation Xrotation Yrotation
										JOINT LeftMiddleDistal
										{
											OFFSET 0.022829 0.000008 0.000145
											CHANNELS 3 Zrotation Xrotation Yrotation
											End Site
											{
												OFFSET 0.022829 0.000008 0.000145
											}
										}
									}
								}
								JOINT LeftRingProximal
								{
									OFFSET 0.066900 0.003343 -0.012193
									CHANNELS 3 Zrotation Xrotation Yrotation
									JOINT LeftRingIntermediate
									{
										OFFSET 0.034327 0.000012 0.000219
										CHANNELS 3 Zrotation Xrotation Yrotation
										JOINT LeftRingDistal
										{
											OFFSET 0.019811 0.000007 0.000126
											CHANNELS 3 Zrotation Xrotation Yrotation
											End Site
											{
												OFFSET 0.019811 0.000007 0.000126
											}
										}
									}
								}
								JOINT LeftThumbProximal
								{
									OFFSET 0.001848 -0.006641 0.017858
									CHANNELS 3 Zrotation Xrotation Yrotation
									JOINT LeftThumbIntermediate
									{
										OFFSET 0.030326 -0.003605 0.035110
										CHANNELS 3 Zrotation Xrotation Yrotation
										JOINT LeftThumbDistal
										{
											OFFSET 0.019149 -0.004135 0.020870
											CHANNELS 3 Zrotation Xrotation Yrotation
											End Site
											{
												OFFSET 0.019149 -0.004134 0.020871
											}
										}
									}
								}
							}
						}
					}
				}
				JOINT RightShoulder
				{
					OFFSET -0.022291 0.089803 -0.017557
					CHANNELS 3 Zrotation Xrotation Yrotation
					JOINT RightUpperArm
					{
						OFFSET -0.087729 0.000010 -0.000425
						CHANNELS 3 Zrotation Xrotation Yrotation
						JOINT RightLowerArm
						{
							OFFSET -0.210401 0.000107 -0.000861
							CHANNELS 3 Zrotation Xrotation Yrotation
							JOINT RightHand
							{
								OFFSET -0.205447 0.000040 -0.000840
								CHANNELS 3 Zrotation Xrotation Yrotation
								JOINT RightIndexProximal
								{
									OFFSET -0.064690 0.001511 0.019688
									CHANNELS 3 Zrotation Xrotation Yrotation
									JOINT RightIndexIntermediate
									{
										OFFSET -0.033222 0.000005 -0.000106
										CHANNELS 3 Zrotation Xrotation Yrotation
										JOINT RightIndexDistal
										{
											OFFSET -0.020455 0.000003 -0.000065
											CHANNELS 3 Zrotation Xrotation Yrotation
											End Site
											{
												OFFSET -0.020455 0.000003 -0.000065
											}
										}
									}
								}
								JOINT RightLittleProximal
								{
									OFFSET -0.062585 -0.001949 -0.028444
									CHANNELS 3 Zrotation Xrotation Yrotation
									JOINT RightLittleIntermediate
									{
										OFFSET -0.031399 0.000005 -0.000100
										CHANNELS 3 Zrotation Xrotation Yrotation
										JOINT RightLittleDistal
										{
											OFFSET -0.018096 0.000003 -0.000057
											CHANNELS 3 Zrotation Xrotation Yrotation
											End Site
											{
												OFFSET -0.018096 0.000003 -0.000057
											}
										}
									}
								}
								JOINT RightMiddleProximal
								{
									OFFSET -0.066640 0.003787 0.002913
									CHANNELS 3 Zrotation Xrotation Yrotation
									JOINT RightMiddleIntermediate
									{
										OFFSET -0.037006 0.000005 -0.000118
										CHANNELS 3 Zrotation Xrotation Yrotation
										JOINT RightMiddleDistal
										{
											OFFSET -0.022829 0.000003 -0.000072
											CHANNELS 3 Zrotation Xrotation Yrotation
											End Site
											{
												OFFSET -0.022829 0.000003 -0.000072
											}
										}
									}
								}
								JOINT RightRingProximal
								{
									OFFSET -0.066782 0.003329 -0.012831
									CHANNELS 3 Zrotation Xrotation Yrotation
									JOINT RightRingIntermediate
									{
										OFFSET -0.034327 0.000005 -0.000109
										CHANNELS 3 Zrotation Xrotation Yrotation
										JOINT RightRingDistal
										{
											OFFSET -0.019810 0.000003 -0.000063
											CHANNELS 3 Zrotation Xrotation Yrotation
											End Site
											{
												OFFSET -0.019810 0.000003 -0.000063
											}
										}
									}
								}
								JOINT RightThumbProximal
								{
									OFFSET -0.002017 -0.006641 0.017839
									CHANNELS 3 Zrotation Xrotation Yrotation
									JOINT RightThumbIntermediate
									{
										OFFSET -0.032510 -0.005699 0.032803
										CHANNELS 3 Zrotation Xrotation Yrotation
										JOINT RightThumbDistal
										{
											OFFSET -0.020784 -0.005081 0.019013
											CHANNELS 3 Zrotation Xrotation Yrotation
											End Site
											{
												OFFSET -0.020784 -0.005081 0.019013
											}
										}
									}
								}
							}
						}
					}
				}
			}
		}
	}
	JOINT LeftUpperLeg
	{
		OFFSET 0.077122 -0.039594 -0.005714
		CHANNELS 3 Zrotation Xrotation Yrotation
		JOINT LeftLowerLeg
		{
			OFFSET 0.000000 -0.343087 0.003694
			CHANNELS 3 Zrotation Xrotation Yrotation
			JOINT LeftFoot
			{
				OFFSET 0.000000 -0.401029 -0.031329
				CHANNELS 3 Zrotation Xrotation Yrotation
				JOINT LeftToes
				{
					OFFSET 0.000000 -0.001594 0.127952
					CHANNELS 3 Zrotation Xrotation Yrotation
					End Site
					{
						OFFSET -0.000000 -0.001594 0.127952
					}
				}
			}
		}
	}
	JOINT RightUpperLeg
	{
		OFFSET -0.077122 -0.039594 -0.005714
		CHANNELS 3 Zrotation Xrotation Yrotation
		JOINT RightLowerLeg
		{
			OFFSET -0.000000 -0.343087 0.003695
			CHANNELS 3 Zrotation Xrotation Yrotation
			JOINT RightFoot
			{
				OFFSET 0.000000 -0.401029 -0.031326
				CHANNELS 3 Zrotation Xrotation Yrotation
				JOINT RightToes
				{
					OFFSET 0.000000 -0.001593 0.127952
					CHANNELS 3 Zrotation Xrotation Yrotation
					End Site
					{
						OFFSET -0.000000 -0.001593 0.127952
					}
				}
			}
		}
	}
}
MOTION
Frames: 5
Frame Time: 0.016667
-0.034845 0.797140 0.015854 -6.996257 -2.045332 5.467463 -4.267781 2.443131 3.149883 6.667961 -2.568481 2.304806 0.979446 -2.090998 2.559965 -5.079111 -2.395806 -1.763413 10.909246 3.504642 -10.984635 -0.000066 -0.000269 0.000050 -0.000066 -0.000271 0.000050 0.000100 -0.000006 0.000020 -74.454178 15.564961 7.984384 0.290349 -0.918553 -14.788188 2.176279 -19.755477 -6.936408 -14.449496 -2.316618 4.063814 -26.368651 -0.480766 -4.658213 -26.368905 -0.480770 -4.658194 -16.783305 4.100230 -12.826147 -26.484917 0.375522 -3.716068 -26.485541 0.375529 -3.716025 -17.976279 -0.600429 -0.881827 -26.485337 0.375592 -3.716209 -26.485527 0.375589 -3.716221 -17.665608 1.095822 -5.108712 -26.485450 0.375620 -3.716238 -26.485522 0.375582 -3.716206 10.247675 -6.352740 19.141636 -9.602706 4.580952 19.616238 -7.502235 3.546081 16.061851 -4.090570 0.042323 -1.185131 70.307017 12.772484 0.124750 1.250005 -3.167188 137.804872 53.621903 -18.257371 24.771930 1.889996 -0.033612 0.000614 17.183883 -0.567833 0.567675 17.184355 -0.567808 0.567678 13.543013 -3.144323 -9.596776 14.558179 0.023999 -0.003223 14.558471 0.024007 -0.003148 12.414921 -2.505701 -8.248975 13.236903 0.021853 -0.002536 13.236944 0.021860 -0.002544 -0.392563 -0.352756 -5.050516 19.692096 0.032166 -0.005593 19.692134 0.032164 -0.005562 0.548488 0.207703 -7.984029 1.449059 1.973665 -23.216329 0.926155 1.269644 -20.396874 8.037802 -7.634908 -16.561231 0.005513 18.640954 0.064906 -7.888495 -7.493333 -2.209259 0.000000 0.000000 0.000000 10.264311 5.173663 16.609379 0.000575 7.495906 0.007759 3.745575 3.879807 -7.111572 0.000000 0.000003 0.000002 
-0.034884 0.797195 0.015855 -7.012762 -2.047096 5.468373 -4.267887 2.440387 3.152666 6.671098 -2.569798 2.305886 0.979553 -2.092250 2.560685 -5.074594 -2.397542 -1.764796 10.903073 3.711383 -11.032390 -0.000019 -0.000003 -0.000002 -0.000019 -0.000003 -0.000002 0.000101 -0.000006 0.000017 -74.454765 15.576853 7.984838 0.290379 -0.918578 -14.789014 2.176313 -19.755468 -6.936355 -14.449503 -2.316618 4.063817 -26.368657 -0.480769 -4.658223 -26.368908 -0.480767 -4.658180 -16.783306 4.100231 -12.826146 -26.484899 0.375516 -3.716082 -26.485565 0.375531 -3.716026 -17.976289 -0.600417 -0.881832 -26.485332 0.375571 -3.716233 -26.485532 0.375593 -3.716216 -17.665582 1.095817 -5.108722 -26.485430 0.375622 -3.716228 -26.485537 0.375591 -3.716206 10.247690 -6.352760 19.141643 -9.602697 4.580984 19.616226 -7.502256 3.546042 16.061851 -4.090570 0.042321 -1.185127 70.318553 12.767349 0.122981 1.249986 -3.167184 137.804859 53.632633 -18.255345 24.768557 1.890006 -0.033609 0.000628 17.183890 -0.567816 0.567667 17.184339 -0.567813 0.567671 13.543019 -3.144314 -9.596767 14.558198 0.023990 -0.003226 14.558471 0.024002 -0.003154 12.414941 -2.505721 -8.248971 13.236878 0.021862 -0.002552 13.236943 0.021861 -0.002529 -0.392560 -0.352758 -5.050507 19.692108 0.032173 -0.005589 19.692144 0.032161 -0.005571 0.548504 0.207699 -7.984013 1.449047 1.973679 -23.216347 0.926159 1.269625 -20.396849 8.063411 -7.621403 -16.557654 0.005479 18.613181 0.064970 -7.892337 -7.480511 -2.212860 0.000001 0.000000 0.000001 10.266838 5.232969 16.612996 0.000645 7.378998 0.007994 3.743168 3.935344 -7.119738 0.000001 0.000001 0.000002 
-0.034923 0.797254 0.015856 -7.026544 -2.049350 5.469536 -4.268026 2.437572 3.156506 6.674260 -2.571115 2.307418 0.979670 -2.093573 2.561851 -5.070966 -2.398541 -1.766427 10.925973 4.017820 -11.097532 0.000042 -0.000136 0.000054 0.000042 -0.000136 0.000054 0.000107 -0.000008 0.000019 -74.455482 15.591968 7.985228 0.290379 -0.918588 -14.789644 2.176265 -19.755480 -6.936388 -14.449492 -2.316615 4.063827 -26.368632 -0.480755 -4.658221 -26.368919 -0.480779 -4.658189 -16.783303 4.100244 -12.826120 -26.484904 0.375514 -3.716088 -26.485537 0.375535 -3.716015 -17.976283 -0.600438 -0.881825 -26.485348 0.375581 -3.716226 -26.485522 0.375600 -3.716199 -17.665588 1.095822 -5.108699 -26.485431 0.375628 -3.716235 -26.485537 0.375585 -3.716217 10.247684 -6.352739 19.141641 -9.602706 4.580976 19.616235 -7.502254 3.546062 16.061839 -4.090563 0.042325 -1.185126 70.330711 12.761954 0.121091 1.250001 -3.167195 137.804859 53.644012 -18.253189 24.765031 1.890004 -0.033616 0.000606 17.183887 -0.567810 0.567674 17.184331 -0.567818 0.567700 13.543000 -3.144317 -9.596784 14.558193 0.023989 -0.003213 14.558485 0.024005 -0.003161 12.414930 -2.505708 -8.248994 13.236870 0.021855 -0.002519 13.236967 0.021857 -0.002550 -0.392572 -0.352771 -5.050527 19.692101 0.032176 -0.005581 19.692158 0.032170 -0.005562 0.548484 0.207697 -7.984028 1.449061 1.973696 -23.216342 0.926175 1.269638 -20.396849 8.086854 -7.604299 -16.554497 0.005472 18.580119 0.065026 -7.895884 -7.465424 -2.215828 -0.000000 -0.000000 0.000000 10.266497 5.293759 16.616303 0.000633 7.260941 0.008223 3.740824 3.991214 -7.127833 0.000000 0.000003 -0.000001 
-0.034961 0.797316 0.015857 -7.037741 -2.052200 5.471084 -4.268117 2.434798 3.161507 6.677449 -2.572404 2.309413 0.979836 -2.094886 2.563470 -5.068680 -2.399132 -1.768246 10.972577 4.401361 -11.176954 0.000054 -0.000136 0.000026 0.000055 -0.000136 0.000026 0.000094 -0.000004 0.000017 -74.456240 15.610288 7.985607 0.290416 -0.918607 -14.790167 2.176291 -19.755475 -6.936384 -14.449484 -2.316608 4.063822 -26.368680 -0.480774 -4.658223 -26.368920 -0.480767 -4.658187 -16.783281 4.100243 -12.826142 -26.484905 0.375521 -3.716069 -26.485547 0.375525 -3.716025 -17.976283 -0.600425 -0.881824 -26.485343 0.375582 -3.716227 -26.485522 0.375595 -3.716206 -17.665582 1.095827 -5.108705 -26.485428 0.375633 -3.716231 -26.485542 0.375572 -3.716227 10.247692 -6.352749 19.141643 -9.602710 4.580970 19.616235 -7.502252 3.546065 16.061837 -4.090563 0.042327 -1.185124 70.343415 12.756329 0.119156 1.250003 -3.167202 137.804845 53.655828 -18.250971 24.761321 1.890016 -0.033613 0.000617 17.183877 -0.567824 0.567662 17.184334 -0.567813 0.567688 13.543009 -3.144305 -9.596796 14.558196 0.024000 -0.003211 14.558485 0.023999 -0.003150 12.414939 -2.505701 -8.248986 13.236868 0.021871 -0.002542 13.236949 0.021860 -0.002527 -0.392573 -0.352754 -5.050521 19.692108 0.032182 -0.005588 19.692139 0.032174 -0.005574 0.548486 0.207708 -7.984022 1.449065 1.973667 -23.216327 0.926157 1.269647 -20.396856 8.108060 -7.584216 -16.551961 0.005453 18.542772 0.065077 -7.899122 -7.448267 -2.218127 -0.000000 -0.000000 0.000001 10.263228 5.356055 16.619030 0.000657 7.141567 0.008431 3.738636 4.047606 -7.135713 0.000001 0.000001 -0.000001 
-0.034997 0.797381 0.015859 -7.046538 -2.055714 5.473241 -4.268065 2.432132 3.167486 6.680683 -2.573650 2.311854 0.980077 -2.096186 2.565549 -5.068083 -2.399044 -1.770249 11.037558 4.839474 -11.267413 -0.000032 -0.000001 0.000025 -0.000032 -0.000003 0.000025 0.000100 0.000000 0.000018 -74.457026 15.631885 7.985869 0.290460 -0.918621 -14.790527 2.176302 -19.755491 -6.936378 -14.449501 -2.316611 4.063818 -26.368693 -0.480762 -4.658207 -26.368912 -0.480775 -4.658195 -16.783308 4.100256 -12.826136 -26.484885 0.375520 -3.716087 -26.485554 0.375517 -3.716020 -17.976283 -0.600418 -0.881826 -26.485348 0.375582 -3.716220 -26.485505 0.375585 -3.716208 -17.665579 1.095827 -5.108709 -26.485440 0.375628 -3.716233 -26.485530 0.375589 -3.716209 10.247691 -6.352744 19.141638 -9.602727 4.580978 19.616230 -7.502255 3.546057 16.061834 -4.090563 0.042327 -1.185127 70.356822 12.750366 0.117100 1.250030 -3.167207 137.804859 53.668310 -18.248597 24.757392 1.889997 -0.033612 0.000607 17.183897 -0.567824 0.567677 17.184324 -0.567827 0.567689 13.543007 -3.144312 -9.596800 14.558203 0.023984 -0.003193 14.558459 0.024010 -0.003164 12.414926 -2.505707 -8.248989 13.236868 0.021869 -0.002543 13.236954 0.021856 -0.002534 -0.392563 -0.352759 -5.050520 19.692098 0.032176 -0.005588 19.692141 0.032155 -0.005555 0.548489 0.207705 -7.984029 1.449070 1.973682 -23.216329 0.926142 1.269639 -20.396869 8.127305 -7.560204 -16.550300 0.005536 18.499984 0.065107 -7.902031 -7.428864 -2.219726 0.000000 0.000000 -0.000001 10.257306 5.419852 16.620982 0.000715 7.021067 0.008635 3.736532 4.104339 -7.143458 0.000000 0.000000 -0.000001 
